<svg width="14" height="14" viewBox="0 0 14 14" fill="none" xmlns="http://www.w3.org/2000/svg">
<path fill-rule="evenodd" clip-rule="evenodd" d="M7 1.2737C3.83691 1.2737 1.27273 3.83789 1.27273 7.00098C1.27273 10.1641 3.83691 12.7282 7 12.7282C10.1631 12.7282 12.7273 10.1641 12.7273 7.00098C12.7273 3.83789 10.1631 1.2737 7 1.2737ZM0 7.00098C0 3.13498 3.13401 0.000976562 7 0.000976562C10.866 0.000976562 14 3.13498 14 7.00098C14 10.867 10.866 14.001 7 14.001C3.13401 14.001 0 10.867 0 7.00098ZM7.16433 4.47099C6.86809 4.42018 6.56343 4.47585 6.3043 4.62814C6.04517 4.78043 5.8483 5.01952 5.74856 5.30305C5.63193 5.63459 5.26862 5.80881 4.93708 5.69219C4.60554 5.57556 4.43132 5.21225 4.54795 4.88071C4.74743 4.31364 5.14117 3.83547 5.65943 3.53088C6.17769 3.2263 6.78701 3.11496 7.3795 3.21659C7.97198 3.31821 8.50937 3.62624 8.8965 4.08613C9.28355 4.54591 9.49543 5.12782 9.49462 5.72883C9.49433 6.70269 8.77231 7.34581 8.2567 7.68955C7.97948 7.87436 7.70679 8.01025 7.50591 8.09953C7.40457 8.14458 7.31923 8.17875 7.25774 8.20218C7.22694 8.21391 7.20197 8.22301 7.18379 8.22947L7.16169 8.23721L7.15465 8.23961L7.15217 8.24045L7.1512 8.24078C7.15101 8.24084 7.1504 8.24104 6.94916 7.63734L7.1504 8.24104C6.81698 8.35218 6.4566 8.17199 6.34546 7.83857C6.23439 7.50537 6.41427 7.14525 6.74726 7.03385L6.75742 7.03029C6.76721 7.02681 6.78325 7.02099 6.80465 7.01283C6.84756 6.99649 6.91137 6.97101 6.98901 6.9365C7.14608 6.86669 7.35067 6.76395 7.55072 6.63058C7.98956 6.33802 8.22189 6.02678 8.22189 5.72825L8.22189 5.7273C8.22234 5.42673 8.1164 5.1357 7.92283 4.90576C7.72927 4.67582 7.46057 4.52181 7.16433 4.47099ZM7.63642 10.1828C7.63642 10.5342 7.35151 10.8192 7.00005 10.8192C6.6486 10.8192 6.36369 10.5342 6.36369 10.1828C6.36369 9.83134 6.6486 9.54643 7.00005 9.54643C7.35151 9.54643 7.63642 9.83134 7.63642 10.1828Z" fill="#FF862F"/>
</svg>
